PathFileType	4	(X/Y/Z)	Patient4_TMGait_0pt6_02_right_11.trc.trc
DataRate	CameraRate	NumFrames	NumMarkers	Units	OrigDataRate	OrigDataStartFrame	OrigNumFrames
82.840236686391	82.840236686391	4	33	mm	82.840236686391	124	       141
Frame#	Time	Sacral			L.Shoulder			Chest			R.Shoulder			Neck			R.ASIS			L.ASIS			R.Thigh.Superior			R.Thigh.Lateral			R.Thigh.Inferior			R.Patella			L.Thigh.Superior			L.Thigh.Lateral			L.Thigh.Inferior			L.Patella			L.Shank.Superior			L.Shank.Lateral			L.Shank.Inferior			R.Shank.Superior			R.Shank.Lateral			R.Shank.Inferior			R.Heel			R.Midfoot.Superior			R.Midfoot.Lateral			R.Toe			L.Heel			L.Midfoot.Lateral			L.Midfoot.Superior			L.Toe			L.Elbow			L.Wrist			R.Elbow			R.Wrist			
		X1	Y1	Z1	X2	Y2	Z2	X3	Y3	Z3	X4	Y4	Z4	X5	Y5	Z5	X6	Y6	Z6	X7	Y7	Z7	X8	Y8	Z8	X9	Y9	Z9	X10	Y10	Z10	X11	Y11	Z11	X12	Y12	Z12	X13	Y13	Z13	X14	Y14	Z14	X15	Y15	Z15	X16	Y16	Z16	X17	Y17	Z17	X18	Y18	Z18	X19	Y19	Z19	X20	Y20	Z20	X21	Y21	Z21	X22	Y22	Z22	X23	Y23	Z23	X24	Y24	Z24	X25	Y25	Z25	X26	Y26	Z26	X27	Y27	Z27	X28	Y28	Z28	X29	Y29	Z29	X30	Y30	Z30	X31	Y31	Z31	X32	Y32	Z32	X33	Y33	Z33	

124	14.414785714286	716.634775603293	992.953707389667	446.832223052202	906.089339095139	1424.808076694877	285.118631755444	997.421860480645	1350.998533698214	450.512098891011	902.620035846094	1423.894568964885	618.441997479440	892.452024916456	1482.522956712239	437.435953234614	935.054291629737	931.465602059419	580.856120345579	942.786091355689	950.460105281068	305.778766344420	1011.108702977198	751.602776530506	556.556536307898	954.318579191438	631.172634470863	617.624122955811	1044.330005923686	596.775823956446	538.885374587236	1068.681229325387	513.223181408163	549.753699644763	954.767481961670	722.356435790143	336.369735288652	846.769276568483	623.603672505227	266.394402640763	905.754650057468	530.793333606805	335.349259157984	890.926233390033	457.774994418720	341.319119945633	847.720445563073	393.632946114158	329.462695183969	737.264913779781	302.912946998088	271.883376135574	757.590420584199	181.796620057989	339.886113830586	1057.576194622643	421.810922091676	559.579785517888	1006.022352694107	305.795875928971	619.258939092169	1076.052144264700	222.510916298829	564.823676244557	983.108142363197	40.393221633782	532.937039886536	1147.147235985979	110.675589608609	572.327777204800	1067.792590912118	37.724181836321	606.029581215047	1270.930637394482	70.793071839700	595.670987942540	605.399333610606	39.616766516812	372.253637611850	678.320664529651	35.123620853241	291.286189419555	763.679722814316	94.490456758196	318.411625709884	890.825020676025	40.608210401742	285.162556080342	837.654887210476	1084.365733887055	155.148429532709	1011.467050608437	890.763683270635	172.312684554118	810.961789769091	1090.750893258472	738.647070413422	835.244249476528	833.691993481608	774.255303043522	
125	14.426857142857	718.984215820569	990.764146281443	449.607508853680	906.333410532190	1422.822311558309	287.692411358849	998.498449340589	1349.777341365964	453.062922900464	903.637667263229	1422.383027967618	621.117541922031	892.933025409166	1480.904694736418	439.994943604628	937.709021659024	929.899605742523	583.767036598912	945.089333406043	948.615939570467	308.954125346934	1013.671180708708	749.412578825337	559.421280715621	955.148564187185	628.969980566034	618.563587319596	1045.578405341606	594.587691908732	540.493086011802	1068.134547933074	510.353077772067	550.173674061365	958.212770581666	720.540522591679	338.917195813155	850.694605586647	621.096340515384	269.618334206903	910.859607516885	528.300390281949	338.179555684215	896.383542793304	454.026483410162	343.337443791067	850.244991163286	390.825494271442	331.583759262659	737.010621861335	303.737045620922	273.701232069444	754.004184713399	181.627828739595	340.542627826747	1056.840119176697	418.796315878750	559.587762386627	1004.291802116918	303.145517571036	618.859375041123	1072.933743203656	219.472360760589	563.678588980087	976.697180242957	40.167388908313	531.634952460709	1142.104640888973	107.220914927978	570.076959176029	1061.253299964815	36.770540107506	604.842662760663	1265.165618360077	64.999383450820	593.695507308986	598.540621573321	42.676776393682	372.141996349174	671.358856702407	36.874010234852	291.304695199505	757.676672919932	94.838365850761	318.287673961871	883.680414899786	39.942638537663	284.958482576591	837.782862733952	1081.569331862265	159.377630790612	1011.137514240494	887.323122583211	175.789804536281	814.348199159706	1088.342259338207	740.805723001434	841.212132180702	831.328924317532	775.917921876795	
126	14.438928571429	720.988642272439	988.910658358811	452.370296638761	906.606686274879	1421.096657991819	290.324230821399	999.586926257407	1348.748105171172	455.662777165813	904.721016816828	1421.146112137738	623.850760385228	893.531397858540	1479.557641581822	442.599792297693	940.175076564695	928.734675703413	586.781746344532	947.154197402776	947.003953473985	312.176675777351	1016.398450342639	747.956681641304	562.195131124788	956.526891920951	627.483752302312	619.608790687800	1047.324269663289	593.115136455309	542.137176597744	1068.428618181576	508.100843449289	550.695542692629	962.002591179073	719.151900871241	341.733022729925	855.627974380652	618.622046528067	273.031185995799	917.345264295446	526.064551861105	341.294325774082	903.363528597013	450.398316041524	345.492505602375	854.137310069053	388.184718860034	333.828195891767	737.970205835289	305.208150200341	275.671502485814	751.308016101696	182.138427969569	341.262403460629	1056.521694199006	416.343657827124	559.645171549422	1002.792059772408	301.253287690885	618.817824915648	1069.472551195120	216.895768860337	562.668171589894	969.270164050444	40.302890550220	530.689138692323	1136.108543775033	104.271282875615	568.064547847274	1053.755942049942	36.239220024658	603.981891936590	1258.485109082787	59.735712176628	591.953254738356	592.127561496648	47.400835082948	372.120602961338	664.663683329389	39.772553543624	291.382786707767	752.235553378500	95.597654242610	318.168582972635	876.454642738119	39.162285014060	284.763850676007	837.863241235912	1078.980457660950	163.798598204076	1010.286522604933	883.637939584019	179.117936539789	818.133924303938	1086.090298793594	743.004959754349	847.985547131229	829.161800729758	777.578509904535	
127	14.451000000000	722.626032364112	987.466416126351	455.123140224574	906.906181229334	1419.739021928327	292.987295969178	1000.660642797711	1347.970399072876	458.271384963832	905.870495898721	1420.258096426264	626.610212231341	894.247655427543	1478.553830195487	445.226405691719	942.414059734313	928.041555600744	589.862005709606	948.898698857770	945.701133758785	315.379380210052	1019.111660950289	747.188283304889	564.839257463737	958.315615404457	626.709174067959	620.850541851261	1049.313950982185	592.283633769200	543.813185801098	1069.310771902532	506.464091857776	551.414861641713	966.096582340188	718.305892104891	344.798460600472	861.599235863780	616.305488315294	276.546893341852	925.218372083810	524.237569002497	344.620727623070	911.847365554287	447.069400172945	347.728974203965	859.469371236657	385.848751137575	336.138287365957	740.262347340652	307.444782336497	277.769880024738	749.652281047862	183.489788802609	342.064390647426	1056.454948800993	414.468231608221	559.869535641930	1001.457222897348	300.064511938030	619.197504006741	1065.789148586375	214.827549312596	561.914588849487	961.336541314400	40.629196450135	530.128652674144	1129.507379816329	101.930010396292	566.430534226842	1045.803161320663	36.026125203442	603.473823734983	1251.298962400854	55.349726731340	590.564799417474	586.348860941178	54.056425274370	372.267586603184	658.362544649279	44.065778726836	291.572941217081	747.485004142626	96.889231643688	318.104343971921	869.151560304807	38.268429952031	284.604634646387	837.940593992437	1076.731080257253	168.368586742033	1008.867670818444	879.787358806378	182.308947510178	822.256112587068	1084.107389506399	745.236754787000	855.506962260508	827.327872835469	779.227742467452	
